<?xml version="1.0" encoding="UTF-8" standalone="no"?>
<!-- Creator: CorelDRAW -->

<svg
   xmlns:dc="http://purl.org/dc/elements/1.1/"
   xmlns:cc="http://creativecommons.org/ns#"
   xmlns:rdf="http://www.w3.org/1999/02/22-rdf-syntax-ns#"
   xmlns:svg="http://www.w3.org/2000/svg"
   xmlns="http://www.w3.org/2000/svg"
   xmlns:sodipodi="http://sodipodi.sourceforge.net/DTD/sodipodi-0.dtd"
   xmlns:inkscape="http://www.inkscape.org/namespaces/inkscape"
   xml:space="preserve"
   width="1000"
   height="1000"
   style="fill-rule:evenodd"
   viewBox="0 0 500 500"
   id="svg4826"
   sodipodi:version="0.32"
   inkscape:version="0.48.1 r9760"
   sodipodi:docname="logo.escritor.svg"
   inkscape:output_extension="org.inkscape.output.svg.inkscape"
   version="1.0"><metadata
   id="metadata4843"><rdf:RDF><cc:Work
       rdf:about=""><dc:format>image/svg+xml</dc:format><dc:type
         rdf:resource="http://purl.org/dc/dcmitype/StillImage" /></cc:Work></rdf:RDF></metadata><sodipodi:namedview
   inkscape:window-height="691"
   inkscape:window-width="1366"
   inkscape:pageshadow="2"
   inkscape:pageopacity="0.0"
   guidetolerance="10000"
   gridtolerance="10000"
   objecttolerance="10000"
   borderopacity="1.0"
   bordercolor="#666666"
   pagecolor="#ffffff"
   id="base"
   showgrid="false"
   showguides="true"
   inkscape:guide-bbox="true"
   inkscape:zoom="0.65861635"
   inkscape:cx="741.15359"
   inkscape:cy="441.0625"
   inkscape:current-layer="svg4826"
   inkscape:snap-global="false"
   inkscape:window-x="0"
   inkscape:window-y="24"
   inkscape:window-maximized="1"><sodipodi:guide
     orientation="0,1"
     position="-153.36134,500"
     id="guide2395" /><sodipodi:guide
     orientation="1,0"
     position="500,754.20167"
     id="guide2397" /><sodipodi:guide
     orientation="1,0"
     position="135.5,321.42857"
     id="guide2399" /><sodipodi:guide
     orientation="1,0"
     position="864.5,571.59091"
     id="guide2405" /></sodipodi:namedview>
 <defs
   id="defs4828"><inkscape:perspective
   sodipodi:type="inkscape:persp3d"
   inkscape:vp_x="0 : 885.82678 : 1"
   inkscape:vp_y="0 : 1000 : 0"
   inkscape:vp_z="1771.6536 : 885.82678 : 1"
   inkscape:persp3d-origin="885.82678 : 590.55119 : 1"
   id="perspective12" />
  <style
   type="text/css"
   id="style4830">
   
    .str1 {stroke:#1F1A17;stroke-width:2}
    .str0 {stroke:#1F1A17;stroke-width:8.4667}
    .fil0 {fill:none}
    .fil1 {fill:#1F1A17}
   
  </style>
 
  <metadata
   id="CorelCorpID_0Corel-Layer" />
  
  
  
  
 <inkscape:perspective
   id="perspective19"
   inkscape:persp3d-origin="215 : 158.33333 : 1"
   inkscape:vp_z="430 : 237.5 : 1"
   inkscape:vp_y="0 : 1000 : 0"
   inkscape:vp_x="0 : 237.5 : 1"
   sodipodi:type="inkscape:persp3d" /><inkscape:perspective
   sodipodi:type="inkscape:persp3d"
   inkscape:vp_x="0 : 526.18109 : 1"
   inkscape:vp_y="0 : 1000 : 0"
   inkscape:vp_z="744.09448 : 526.18109 : 1"
   inkscape:persp3d-origin="372.04724 : 350.78739 : 1"
   id="perspective4129" /><inkscape:perspective
   id="perspective4063"
   inkscape:persp3d-origin="372.04724 : 350.78739 : 1"
   inkscape:vp_z="744.09448 : 526.18109 : 1"
   inkscape:vp_y="0 : 1000 : 0"
   inkscape:vp_x="0 : 526.18109 : 1"
   sodipodi:type="inkscape:persp3d" /><inkscape:perspective
   sodipodi:type="inkscape:persp3d"
   inkscape:vp_x="0 : 526.18109 : 1"
   inkscape:vp_y="0 : 1000 : 0"
   inkscape:vp_z="744.09448 : 526.18109 : 1"
   inkscape:persp3d-origin="372.04724 : 350.78739 : 1"
   id="perspective3322" /><inkscape:perspective
   id="perspective3320"
   inkscape:persp3d-origin="372.04724 : 350.78739 : 1"
   inkscape:vp_z="744.09448 : 526.18109 : 1"
   inkscape:vp_y="0 : 1000 : 0"
   inkscape:vp_x="0 : 526.18109 : 1"
   sodipodi:type="inkscape:persp3d" /><inkscape:perspective
   sodipodi:type="inkscape:persp3d"
   inkscape:vp_x="0 : 237.5 : 1"
   inkscape:vp_y="0 : 1000 : 0"
   inkscape:vp_z="430 : 237.5 : 1"
   inkscape:persp3d-origin="215 : 158.33333 : 1"
   id="perspective3318" />
  
  
  
  
 <metadata
   id="metadata3316" />
 
  <style
   id="style3314"
   type="text/css">
   
    .str1 {stroke:#1F1A17;stroke-width:2}
    .str0 {stroke:#1F1A17;stroke-width:8.4667}
    .fil0 {fill:none}
    .fil1 {fill:#1F1A17}
   
  </style>
  <inkscape:perspective
   id="perspective3312"
   inkscape:persp3d-origin="885.82678 : 590.55119 : 1"
   inkscape:vp_z="1771.6536 : 885.82678 : 1"
   inkscape:vp_y="0 : 1000 : 0"
   inkscape:vp_x="0 : 885.82678 : 1"
   sodipodi:type="inkscape:persp3d" /></defs>
 <g
   id="g3286"
   transform="matrix(1.0293233,0,0,1.0293233,-8.7490526,-10.878796)"
   style="stroke:#000000"><circle
     transform="matrix(1.4263701,0,0,1.4263701,-127.89115,-101.14442)"
     class="fil0 str0"
     cx="265.89801"
     cy="248.597"
     r="155.418"
     id="circle4834"
     sodipodi:cx="265.89801"
     sodipodi:cy="248.597"
     sodipodi:rx="155.418"
     sodipodi:ry="155.418"
     style="fill:none;stroke:#000000;stroke-width:8.46669960000000010"
     d="m 421.31601,248.597 c 0,85.83499 -69.58301,155.418 -155.418,155.418 -85.83499,0 -155.418,-69.58301 -155.418,-155.418 0,-85.83499 69.58301,-155.417999 155.418,-155.417999 85.83499,0 155.418,69.583009 155.418,155.417999 z" /><circle
     transform="matrix(1.4263701,0,0,1.4263701,-127.89115,-101.14442)"
     class="fil0 str1"
     cx="265.89801"
     cy="248.597"
     r="169.27699"
     id="circle4836"
     sodipodi:cx="265.89801"
     sodipodi:cy="248.597"
     sodipodi:rx="169.27699"
     sodipodi:ry="169.27699"
     style="fill:none;stroke:#000000;stroke-width:2"
     d="m 435.175,248.597 c 0,93.4891 -75.78789,169.27699 -169.27699,169.27699 -93.4891,0 -169.276993,-75.78789 -169.276993,-169.27699 0,-93.4891 75.787893,-169.276993 169.276993,-169.276993 93.4891,0 169.27699,75.787893 169.27699,169.276993 z" /></g>
<g
   id="g3277"
   transform="matrix(1.179433,0,0,1.179433,-45.643647,-46.005748)"
   style="fill:#000000"><path
     d="M 349.80036,301.83494 C 350.13687,301.80503 350.5893,301.76016 350.9308,301.73523 C 350.66657,300.61352 350.61173,299.45691 350.54941,298.31027 C 350.13812,290.41341 349.92873,282.50659 349.34046,274.62219 C 349.16098,272.86983 349.13855,271.05514 348.45804,269.40498 C 347.58061,267.20393 346.1872,265.26461 344.75639,263.39509 C 348.75966,263.94099 352.78785,264.50185 356.64904,265.73324 C 358.29172,266.3265 359.97928,266.95466 361.34029,268.08634 C 362.10804,268.77184 362.81098,269.80381 362.47447,270.88066 C 362.16039,272.01732 362.06566,273.19388 361.93355,274.36046 C 361.24308,281.22783 360.61741,288.10518 360.08148,294.98751 C 363.43914,291.60741 366.49518,287.9282 369.16735,283.98226 C 371.03937,281.19792 372.79921,278.31387 374.11785,275.22044 C 374.8158,273.72482 374.86565,272.02231 374.60641,270.41452 C 377.51788,271.94254 380.45178,273.50546 382.96941,275.6442 C 384.16839,276.73101 385.46958,277.93748 385.79363,279.59512 C 385.98058,280.50744 385.53439,281.4098 384.85139,281.99808 C 381.48874,285.25104 377.65996,287.97057 373.84365,290.66268 C 369.2197,293.8658 364.47859,296.89941 359.68763,299.84577 C 359.67019,300.06513 359.63529,300.50135 359.61784,300.72071 C 361.69176,300.4839 363.76568,300.2446 365.83961,300.00032 C 369.20102,299.5967 376.28015,298.7666 383.50035,297.73695 C 385.68644,297.48519 387.52356,296.06435 389.69968,295.77022 C 390.80145,295.6032 391.90073,296.03693 392.78813,296.66509 C 394.69255,297.98622 396.6194,299.31732 398.21971,301.00487 C 398.73321,301.64799 399.43615,302.36589 399.24421,303.26575 C 398.94509,303.82661 398.29699,304.07338 397.70622,304.19054 C 395.71455,304.56444 393.69796,304.19054 391.69384,304.22793 C 388.5331,304.26532 385.37735,304.46723 382.22409,304.6816 C 375.94499,305.14275 369.66838,305.65624 363.40923,306.34672 C 364.96467,306.92004 366.57246,307.42356 367.99579,308.29351 C 368.75358,308.7632 369.49777,309.22968 369.81296,310.37242 C 370.01985,311.09032 369.86531,311.84561 369.78305,312.57098 C 369.31691,314.8169 368.948,317.08525 368.72365,319.37105 C 368.73213,319.93534 368.5839,320.74878 368.54418,321.18324 C 368.15356,325.4562 368.20767,329.80298 368.93055,334.05053 C 369.31691,336.23164 369.90021,338.4302 371.09919,340.31966 C 371.7099,341.25941 372.48014,342.14681 373.51461,342.6279 C 376.59808,344.07366 380.02055,345.02587 383.45299,344.7068 C 385.61166,344.51985 387.82268,343.7197 389.30334,342.08449 C 389.64749,341.72271 390.04805,340.70398 389.70965,338.38034 C 388.9768,334.23001 387.8177,330.16941 386.47164,326.18109 C 390.71421,330.63055 394.5056,335.60597 397.07806,341.21703 C 398.10256,343.57512 398.89523,346.06283 399.12456,348.6328 C 399.19934,349.82181 399.13453,351.13546 398.44655,352.14999 C 397.39962,353.08475 395.99124,353.4761 394.69006,353.92479 C 389.11639,355.49519 383.25108,355.82422 377.49545,355.41542 C 373.21798,355.1163 369.01031,353.48608 365.7748,350.65188 C 361.9859,347.43132 359.54306,342.67027 359.1517,337.70732 C 358.44876,328.40458 358.62076,319.05946 358.87751,309.74426 C 358.71757,308.07403 358.59598,307.528 358.5036,306.87517 C 353.33375,307.29394 348.18883,307.93955 343.03394,308.51287 C 340.05216,308.95509 335.57301,309.42034 332.37019,309.86641 C 329.95228,310.22535 327.51691,310.49456 325.12393,311.00307 C 324.13682,311.1975 323.10983,311.66862 322.10278,311.26979 C 320.59968,310.66158 319.42812,309.45511 318.46095,308.18633 C 317.28191,306.73558 316.35961,305.09788 315.51957,303.43525 C 317.70566,304.25286 320.01889,305.11034 322.39193,304.77383 C 331.49775,303.87895 340.70452,302.83451 349.80036,301.83494 z"
     id="path6"
     sodipodi:nodetypes="ccccccccccccccccccccccccccccccccccscccccccccccccccccccccccc"
     style="fill:#000000;stroke:#000000;stroke-width:0.97656250000000000;stroke-miterlimit:4;stroke-dasharray:none" /><path
     style="fill:#000000;stroke:#000000;stroke-width:0.97656250000000000;stroke-miterlimit:4;stroke-dasharray:none"
     d="M 328.51399,279.14768 C 328.60484,279.56368 328.65397,280.51506 328.75703,281.32879 C 328.75733,281.33081 328.75673,281.33299 328.75703,281.33502 C 328.78062,281.52072 328.80801,281.69513 328.83804,281.85848 C 329.68318,287.32675 331.17627,292.80375 334.15371,297.51261 C 335.44991,299.58902 337.95133,300.39541 340.21719,300.88398 C 341.36134,301.046 342.67873,301.34637 343.72566,300.70326 C 344.67289,299.40456 344.27405,297.63974 343.92508,296.19148 C 343.92049,296.19072 343.91717,296.18606 343.91261,296.18525 C 343.91489,296.17287 343.91739,296.16099 343.91885,296.14786 C 343.46019,294.06397 342.36963,292.04239 340.63472,290.75117 C 337.48395,288.28091 334.50643,285.60002 331.64232,282.80571 C 330.55052,281.62916 329.34655,280.53362 328.51399,279.14768 z"
     id="path8" /><path
     d="M 336.77852,329.63223 C 338.70538,325.66386 340.9301,320.65728 342.36839,316.48451 C 342.66502,315.50488 343.03643,314.53024 343.15359,313.50823 C 342.90183,312.13476 341.82498,311.12522 340.94007,310.11817 C 342.36839,310.61671 343.9014,310.96818 345.17267,311.80572 C 346.31183,312.04004 347.30393,312.68315 348.27608,313.29386 C 349.87389,314.3059 351.39194,315.55972 352.33917,317.22484 C 352.91249,318.26679 353.20164,319.55302 352.74797,320.69218 C 351.92538,322.98297 350.77126,325.13416 349.67946,327.30281 C 346.78046,332.73439 343.5599,338.00644 339.88816,342.94945 C 337.20851,346.45169 334.35437,349.93149 330.68513,352.44164 C 326.23317,355.50017 320.61215,356.75898 315.28277,355.90897 C 319.41565,353.49605 322.89795,350.12094 325.97144,346.4841 C 330.03952,341.61835 333.83215,335.23332 336.77852,329.63223 z"
     id="path12"
     sodipodi:nodetypes="cccccccccccccc"
     style="fill:#000000;stroke:#000000;stroke-width:0.97656250000000000;stroke-miterlimit:4;stroke-dasharray:none" /></g><g
   id="layer1"
   inkscape:label="Layer 1"
   transform="matrix(0.2357885,0,0,0.2357885,77.132262,264.05708)"
   style="fill:#000000;stroke:#000000;stroke-width:4.88484477999999989;stroke-miterlimit:4;stroke-dasharray:none"><path
     id="path4135"
     d="M 288.35754,470.51877 C 276.86676,467.01078 254.71033,451.6766 236.20921,434.42758 C 220.17821,419.48151 197.25911,391.02249 186.58994,372.81455 C 186.01572,371.83457 193.07833,374.07858 202.28463,377.80122 C 231.08755,389.44789 267.27841,398.07361 274.96525,395.12389 C 283.56112,391.82534 296.53365,338.02471 312.4117,239.82314 C 318.88186,199.80691 323.00981,164.72431 322.34167,155.43046 L 321.85607,148.67597 L 304.42877,148.23638 C 291.45628,147.90914 282.89329,148.63296 270.93024,151.068 C 249.22836,155.48533 220.98387,163.34246 218.81975,165.56423 C 217.85082,166.55895 214.78683,174.38414 212.01089,182.95354 C 196.98902,229.32651 170.56837,296.2794 155.03212,327.34422 C 132.22561,372.94593 108.98677,396.89554 78.017918,406.71396 C 66.776636,410.27793 45.720112,412.2215 36.694294,410.52824 L 30.836516,409.4293 L 40.015058,403.92079 C 65.312306,388.73857 88.565886,363.4568 109.97935,327.85417 C 121.54468,308.62533 140.62731,269.41836 150.17127,245.2764 C 158.34543,224.5993 173.50311,180.46658 172.66969,179.77054 C 172.45604,179.59211 155.1035,185.63377 134.10849,193.19645 C 113.11347,200.75913 94.542246,206.98207 92.839084,207.02522 C 88.364683,207.13855 70.602983,188.01351 59.42558,171.04701 C 46.453879,151.35686 46.591209,147.44201 60.044905,153.39187 C 64.595049,155.40416 72.664197,157.94829 77.976333,159.0455 C 87.147877,160.93984 89.886198,160.65944 132.29511,153.48317 C 156.85828,149.32667 178.39086,145.38908 180.14525,144.73297 C 182.71108,143.77337 184.1456,140.08011 187.47849,125.85306 C 193.59365,99.74925 197.58042,76.065185 199.57676,53.980746 C 201.63236,31.241241 201.04092,29.058606 189.40554,16.445441 C 185.55728,12.273781 182.40869,8.592837 182.40869,8.265569 C 182.40869,7.9382883 187.34617,7.6705214 193.38088,7.6705214 C 214.07473,7.6705214 240.71575,15.307435 254.2675,25.124266 C 260.55724,29.680533 260.68888,29.962826 259.82339,37.038154 C 258.78167,45.553933 252.10852,67.340609 238.15653,107.7766 C 230.03034,131.32818 228.55822,136.98905 230.56132,136.98326 C 231.92788,136.97931 242.46178,135.59085 253.96992,133.89778 C 265.47809,132.20472 284.46947,129.76327 296.17299,128.47234 C 307.87653,127.18141 320.39908,125.08546 324.0009,123.81467 C 330.0443,121.68244 331.15633,121.74327 338.41155,124.603 C 349.88645,129.126 375.61775,144.14003 383.43909,150.87626 L 390.2012,156.7002 L 382.25851,172.16397 C 377.89004,180.66906 372.89904,193.23681 371.16738,200.09233 C 367.95564,212.80744 361.53716,250.2523 358.48152,274.10071 C 346.57705,367.01178 319.04168,460.21697 300.69483,469.7045 C 295.88967,472.18933 294.19579,472.30113 288.35754,470.51877 z"
     style="fill:#000000;stroke:#000000;stroke-width:4.88484477999999989;stroke-miterlimit:4;stroke-dasharray:none" /></g><g
   transform="translate(-7.879e-2,0.699023)"
   id="g3314"><path
     sodipodi:nodetypes="cccccccccccc"
     style="fill:none;stroke:#000000;stroke-width:2.93449235000000019"
     id="path4838"
     d="M 71.815628,246.21135 C 174.56689,92.180334 220.73132,237.96782 428.8807,130.46683 C 403.06903,173.3356 350.05801,219.82666 293.08929,219.93827 C 291.96286,216.74868 285.57907,214.34831 282.14312,214.46476 C 285.40259,220.5504 283.23037,227.23667 278.10199,229.34248 L 285.76907,232.46003 C 274.61368,277.60287 269.71604,332.1491 289.29416,391.71036 C 275.83582,394.13849 266.44203,405.61492 276.01569,420.03234 C 237.17033,417.33031 248.45281,390.19773 205.5432,397.6751 C 240.1016,345.70959 217.231,271.42666 213.62716,223.53347 C 244.3384,218.48498 208.58084,188.58421 71.81519,246.21106 L 71.815628,246.21135 z"
     class="fil0 str1" /><path
     style="fill:#000000"
     id="path4840"
     d="M 224.92191,229.76884 C 237.65398,228.42588 248.11284,222.51283 250.00277,212.14321 L 260.40151,221.03969 C 260.61363,226.06344 264.65021,228.72461 271.30378,229.76884 C 262.94988,281.53827 258.22953,334.44834 271.30378,384.49843 C 260.01047,384.3552 258.29961,392.21098 259.81897,402.67307 C 241.29923,394.79723 251.2708,386.71471 224.92191,384.49843 C 244.89754,384.15844 236.09218,237.19891 224.92191,229.76884 L 224.92191,229.76884 z M 270.58066,213.09776 C 273.53573,213.09776 275.93226,215.49427 275.93226,218.44935 C 275.93226,221.4044 273.53573,223.80092 270.58066,223.80092 C 267.62561,223.80092 265.22907,221.4044 265.22907,218.44935 C 265.22907,215.49427 267.62561,213.09776 270.58066,213.09776 z M 105.5464,221.15146 C 243.12933,175.95001 214.82439,218.93707 242.53963,217.81283 C 236.31922,212.8568 231.50848,206.96834 233.62442,205.63139 C 281.07405,211.27689 327.42915,217.73178 390.67856,160.68039 C 245.27818,237.86395 214.79249,130.09684 105.54596,221.15146 L 105.5464,221.15146 z"
     class="fil1" /></g></svg>